<?xml version="1.0" encoding="utf-8"?>
<!-- Generator: Adobe Illustrator 19.0.0, SVG Export Plug-In . SVG Version: 6.00 Build 0)  -->
<svg version="1.1" xmlns="http://www.w3.org/2000/svg" xmlns:xlink="http://www.w3.org/1999/xlink" x="0px" y="0px"
	 viewBox="0 0 1440 1440" style="enable-background:new 0 0 1440 1440;" xml:space="preserve">
<style type="text/css">
	.st0{fill:#8C8C8C;}
	.st1{fill:#FFFFFF;}
</style>
<g id="Background">
	<rect id="XMLID_1_" x="0" class="st0" width="1440" height="1440"/>
</g>
<g id="Logo">
	<g id="XMLID_135_">
		<path id="XMLID_136_" class="st1" d="M180,720c0-79.8,59.2-141,140.9-141c49.2,0,92.5,24.4,116.1,62.7l-53.4,31
			c-12-20.9-35.2-33.3-62.7-33.3c-48,0-79,32.1-79,80.6c0,48.4,31,80.5,79,80.5c27.5,0,51.1-12.4,62.7-33.3l53.4,31
			c-23.2,38.3-66.6,62.7-116.1,62.7C239.2,860.9,180,799.8,180,720z"/>
		<path id="XMLID_138_" class="st1" d="M456.6,758.7c0-57.7,45.7-102.2,102.6-102.2S661.8,701,661.8,758.7s-45.7,102.2-102.6,102.2
			S456.6,816.4,456.6,758.7z M603.7,758.7c0-27.5-19.4-45.7-44.5-45.7c-25.2,0-44.5,18.2-44.5,45.7c0,27.5,19.4,45.7,44.5,45.7
			C584.4,804.4,603.7,786.2,603.7,758.7z"/>
		<path id="XMLID_141_" class="st1" d="M878,661.9v193.6h-58.1v-18.2c-10.5,14.3-29.8,23.6-55.4,23.6c-39.1,0-72.4-27.9-72.4-80.1
			V661.9h58.1v110.4c0,24,15.1,35.2,33.7,35.2c21.3,0,36-12.4,36-39.9V661.9H878z"/>
		<path id="XMLID_143_" class="st1" d="M1106.6,736.7v118.9h-58.1V745.2c0-24-15.1-35.2-33.7-35.2c-21.3,0-36,12.4-36,39.9v105.7
			h-58.1V661.9h58.1v18.2c10.5-14.3,29.8-23.6,55.4-23.6C1073.3,656.5,1106.6,684.4,1106.6,736.7z"/>
		<path id="XMLID_145_" class="st1" d="M1220.1,717.7v68.5c0,16.6,14.3,18.2,39.9,16.6v52.6c-75.9,7.8-98-15.1-98-69.3v-68.5h-31
			v-55.8h31v-36.8l58.1-17.4v54.2h39.9v55.8H1220.1z"/>
	</g>
</g>
</svg>
