<?xml version="1.0" encoding="UTF-8" standalone="no"?>
<!-- Generator: Adobe Illustrator 16.0.0, SVG Export Plug-In . SVG Version: 6.00 Build 0)  -->

<svg
   xmlns:dc="http://purl.org/dc/elements/1.1/"
   xmlns:cc="http://creativecommons.org/ns#"
   xmlns:rdf="http://www.w3.org/1999/02/22-rdf-syntax-ns#"
   xmlns:svg="http://www.w3.org/2000/svg"
   xmlns="http://www.w3.org/2000/svg"
   xmlns:sodipodi="http://sodipodi.sourceforge.net/DTD/sodipodi-0.dtd"
   xmlns:inkscape="http://www.inkscape.org/namespaces/inkscape"
   version="1.1"
   id="Capa_1"
   x="0px"
   y="0px"
   width="227.57703"
   height="192.66647"
   viewBox="0 0 213.35345 180.62481"
   xml:space="preserve"
   inkscape:version="0.92.0 r"
   sodipodi:docname="duck.svg"><metadata
     id="metadata41"><rdf:RDF><cc:Work
         rdf:about=""><dc:format>image/svg+xml</dc:format><dc:type
           rdf:resource="http://purl.org/dc/dcmitype/StillImage" /><dc:title></dc:title></cc:Work></rdf:RDF></metadata><defs
     id="defs39" /><sodipodi:namedview
     pagecolor="#ffffff"
     bordercolor="#666666"
     borderopacity="1"
     objecttolerance="10"
     gridtolerance="10"
     guidetolerance="10"
     inkscape:pageopacity="0"
     inkscape:pageshadow="2"
     inkscape:window-width="1920"
     inkscape:window-height="1080"
     id="namedview37"
     showgrid="false"
     inkscape:zoom="2"
     inkscape:cx="116.49979"
     inkscape:cy="115.16017"
     inkscape:window-x="1920"
     inkscape:window-y="0"
     inkscape:window-maximized="0"
     inkscape:current-layer="layer2"
     fit-margin-top="0"
     fit-margin-left="0"
     fit-margin-right="0"
     fit-margin-bottom="0" /><g
     inkscape:groupmode="layer"
     id="layer2"
     inkscape:label="bg"
     style="display:inline"
     transform="translate(9.1134271,-24.409016)"><g
       id="g3"
       style="fill:#000000;fill-opacity:1;fill-rule:nonzero;stroke:#000000;stroke-opacity:1"
       transform="matrix(0.67498052,0,0,0.6705973,255.6216,39.445962)"
       inkscape:export-xdpi="154.35548"
       inkscape:export-ydpi="154.35548"><rect
         style="fill:#8c8c8c;fill-opacity:1;fill-rule:nonzero;stroke:#8c8c8c;stroke-width:44.70000076;stroke-linecap:round;stroke-linejoin:round;stroke-miterlimit:4;stroke-dasharray:none;stroke-opacity:1"
         id="rect4169"
         width="272.29599"
         height="224.40028"
         x="-369.86136"
         y="0.88695705" /></g></g><g
     id="g7"
     transform="translate(9.1134271,-24.409016)" /><g
     id="g9"
     transform="translate(9.1134271,-24.409016)" /><g
     id="g11"
     transform="translate(9.1134271,-24.409016)" /><g
     id="g13"
     transform="translate(9.1134271,-24.409016)" /><g
     id="g15"
     transform="translate(9.1134271,-24.409016)" /><g
     id="g17"
     transform="translate(9.1134271,-24.409016)" /><g
     id="g19"
     transform="translate(9.1134271,-24.409016)" /><g
     id="g21"
     transform="translate(9.1134271,-24.409016)" /><g
     id="g23"
     transform="translate(9.1134271,-24.409016)" /><g
     id="g25"
     transform="translate(9.1134271,-24.409016)" /><g
     id="g27"
     transform="translate(9.1134271,-24.409016)" /><g
     id="g29"
     transform="translate(9.1134271,-24.409016)" /><g
     id="g31"
     transform="translate(9.1134271,-24.409016)" /><g
     id="g33"
     transform="translate(9.1134271,-24.409016)" /><g
     id="g35"
     transform="translate(9.1134271,-24.409016)" /><g
     inkscape:groupmode="layer"
     id="layer1"
     inkscape:label="duck"
     style="display:inline"
     transform="translate(9.1134271,-24.409016)"><path
       d="m 178.30253,115.62077 c 9.889,-6.36799 27.417,-16.463979 28.106,-42.165979 0.536,-20.278 -9.971,-49.506003 -49.155,-50.878003 -31.482,-1.107999 -44.623,19.484003 -48.452,37.972003 l -0.928,-0.126 c -1.932,0 -3.438,1.28 -5.34,2.889 -2.084,1.784 -4.683003,3.979 -7.792003,4.308 -3.573,0.361 -8.111,-1.206 -11.698,-2.449 -4.193,-1.431 -6.624,-2.047 -8.265,-0.759 -1.503,1.163 -2.178,3.262 -2.028,6.226 0.331,6.326 4.971,18.91699 16.016,25.778 7.67,4.764999 16.248003,5.481999 20.681003,5.481999 h 0.006 c 2.37,0 4.945,-0.239 7.388,-0.726 2.741,4.21799 5.228,7.47599 6.037,9.75199 2.054,5.85099 -27.848003,25.08699 -27.848003,55.00999 0,29.916 22.013003,48.475 56.727003,48.475 h 55.004 c 30.593,0 70.814,-29.908 75.291,-92.48 -28.541,24.072 -42.294,-9.96899 -103.75,-6.308 z M 91.671527,91.754781 c -10.166,-6.32799 -13.949,-19.02299 -13.647,-22.41999 0.897,0.24 2.194,0.689 3.228,1.042 4.105,1.415 9.416,3.228 14.068,2.707 4.799003,-0.499 8.253003,-3.437 10.778003,-5.574 0.607,-0.509 1.393,-1.176 1.872,-1.491 0.87,0.315 0.962,0.693 1.176,3.14 0.196,2.26 0.473,5.37 2.362,9.006 1.437,2.761 3.581,5.705 5.646,8.542 1.701,2.33599 4.278,5.87099 4.535,6.40399 -0.445,1.184 -4.907,3.28201 -12.229,3.28201 -6.553,0.008 -13.040003,-1.679 -17.789003,-4.63801 z m 37.919003,-28.57699 c 0,-4.938 4.001,-8.943 8.931,-8.943 4.941,0 8.942,4.005 8.942,8.943 0,4.931 -4.001,8.942 -8.942,8.942 -4.937,10e-4 -8.931,-4.011 -8.931,-8.942 z"
       id="path5"
       style="display:inline;fill:#ffffff;fill-opacity:1;fill-rule:nonzero;stroke:none;stroke-opacity:1"
       inkscape:connector-curvature="0"
       sodipodi:nodetypes="cccccccccccssccsssccccccccccccccssscs" /></g></svg>