<?xml version="1.0" encoding="utf-8"?>
<!-- Generator: Adobe Illustrator 19.0.0, SVG Export Plug-In . SVG Version: 6.00 Build 0)  -->
<svg version="1.1" xmlns="http://www.w3.org/2000/svg" xmlns:xlink="http://www.w3.org/1999/xlink" x="0px" y="0px"
	 viewBox="0 0 1440 1440" style="enable-background:new 0 0 1440 1440;" xml:space="preserve">
<style type="text/css">
	.st0{fill:#8C8C8C;}
	.st1{fill:#FFFFFF;}
</style>
<g id="Background">
	<rect id="XMLID_1_" x="0" class="st0" width="1440" height="1440"/>
</g>
<g id="Logo">
	<g id="XMLID_3_">
		<g id="XMLID_96_">
			<g id="XMLID_77_">
				<path id="XMLID_82_" class="st1" d="M945.5,334.6l-62.9,62.9c28.1,35.4,44.9,80.2,44.9,128.7c0,48.6-16.8,93.3-44.9,128.7
					l62.9,62.9c44-51.7,70.5-118.6,70.5-191.6C1016.1,453.2,989.5,386.3,945.5,334.6z M969.5,662.1h-47.9v-14.3h47.9V662.1z
					 M952,403.9v17.6h-13v-17.6h-17.5V391H939v-17.5h13V391h17.6v12.9H952z"/>
				<path id="XMLID_78_" class="st1" d="M720,733.7c-114.4,0-207.5-93.1-207.5-207.5c0-114.4,93.1-207.5,207.5-207.5
					c48.6,0,93.3,16.8,128.7,44.9l62.9-62.9c-51.7-44-118.6-70.5-191.6-70.5c-163.2,0-296.1,132.8-296.1,296.1
					c0,163.2,132.8,296.1,296.1,296.1c73,0,139.9-26.6,191.6-70.5l-62.9-62.9C813.3,716.9,768.6,733.7,720,733.7z M720,795.7
					c-148.6,0-269.5-120.9-269.5-269.5c0-148.6,120.9-269.5,269.5-269.5c54.1,0,106.9,16.4,151.4,46.7l-25.5,25.5
					c-37.4-23.9-81.3-36.8-125.8-36.8c-129.1,0-234.1,105-234.1,234.1c0,129.1,105,234.1,234.1,234.1c44.6,0,88.4-12.9,125.8-36.8
					l25.5,25.5C826.9,779.3,774.1,795.7,720,795.7z"/>
			</g>
		</g>
		<g id="XMLID_135_">
			<path id="XMLID_136_" class="st1" d="M180,1068.9c0-79.8,59.2-141,140.9-141c49.2,0,92.5,24.4,116.1,62.7l-53.4,31
				c-12-20.9-35.2-33.3-62.7-33.3c-48,0-79,32.1-79,80.6c0,48.4,31,80.5,79,80.5c27.5,0,51.1-12.4,62.7-33.3l53.4,31
				c-23.2,38.3-66.6,62.7-116.1,62.7C239.2,1209.8,180,1148.7,180,1068.9z"/>
			<path id="XMLID_138_" class="st1" d="M456.6,1107.6c0-57.7,45.7-102.2,102.6-102.2s102.6,44.5,102.6,102.2
				c0,57.7-45.7,102.2-102.6,102.2S456.6,1165.3,456.6,1107.6z M603.7,1107.6c0-27.5-19.4-45.7-44.5-45.7
				c-25.2,0-44.5,18.2-44.5,45.7c0,27.5,19.4,45.7,44.5,45.7C584.4,1153.3,603.7,1135.1,603.7,1107.6z"/>
			<path id="XMLID_141_" class="st1" d="M878,1010.8v193.6h-58.1v-18.2c-10.5,14.3-29.8,23.6-55.4,23.6c-39.1,0-72.4-27.9-72.4-80.1
				v-118.9h58.1v110.4c0,24,15.1,35.2,33.7,35.2c21.3,0,36-12.4,36-39.9v-105.7H878z"/>
			<path id="XMLID_143_" class="st1" d="M1106.6,1085.6v118.9h-58.1v-110.3c0-24-15.1-35.2-33.7-35.2c-21.3,0-36,12.4-36,39.9v105.7
				h-58.1v-193.6h58.1v18.2c10.5-14.3,29.8-23.6,55.4-23.6C1073.3,1005.4,1106.6,1033.3,1106.6,1085.6z"/>
			<path id="XMLID_145_" class="st1" d="M1220.1,1066.6v68.5c0,16.6,14.3,18.2,39.9,16.6v52.6c-75.9,7.8-98-15.1-98-69.3v-68.5h-31
				v-55.8h31v-36.8l58.1-17.4v54.2h39.9v55.8H1220.1z"/>
		</g>
	</g>
</g>
</svg>
