<?xml version="1.0" encoding="utf-8"?>
<!-- Generator: Adobe Illustrator 19.0.0, SVG Export Plug-In . SVG Version: 6.00 Build 0)  -->
<svg version="1.1" xmlns="http://www.w3.org/2000/svg" xmlns:xlink="http://www.w3.org/1999/xlink" x="0px" y="0px"
	 viewBox="0 0 1440 1440" style="enable-background:new 0 0 1440 1440;" xml:space="preserve">
<style type="text/css">
	.st0{fill:#8C8C8C;}
	.st1{fill:#FFFFFF;}
</style>
<g id="Background">
	<rect id="XMLID_1_" x="0" class="st0" width="1440" height="1440"/>
</g>
<g id="Logo">
	<g id="XMLID_96_">
		<g id="XMLID_76_">
			<path id="XMLID_81_" class="st1" d="M1131.3,370.5l-114.7,114.7c51.3,64.6,81.9,146.2,81.9,234.8c0,88.6-30.6,170.3-81.9,234.8
				l114.7,114.7C1211.6,975.2,1260,853.2,1260,720C1260,586.8,1211.6,464.8,1131.3,370.5z M1175.1,967.8h-87.5v-26h87.5V967.8z
				 M1143.1,496.9v32h-23.7v-32h-31.9v-23.5h31.9v-31.9h23.7v31.9h32v23.5H1143.1z"/>
			<path id="XMLID_77_" class="st1" d="M720,1098.5c-208.7,0-378.5-169.8-378.5-378.5c0-208.7,169.8-378.5,378.5-378.5
				c88.6,0,170.3,30.6,234.8,81.9l114.7-114.7C975.2,228.4,853.2,180,720,180c-297.8,0-540,242.2-540,540c0,297.8,242.2,540,540,540
				c133.2,0,255.2-48.4,349.5-128.7l-114.7-114.7C890.3,1067.9,808.6,1098.5,720,1098.5z M720,1211.6
				c-271,0-491.6-220.5-491.6-491.6c0-271,220.5-491.6,491.6-491.6c98.7,0,195,29.9,276.1,85.1l-46.6,46.6
				C881.3,316.6,801.3,293,720,293c-235.4,0-427,191.5-427,427c0,235.5,191.5,427,427,427c81.3,0,161.3-23.6,229.5-67.1l46.6,46.6
				C915,1181.7,818.7,1211.6,720,1211.6z"/>
		</g>
	</g>
</g>
</svg>
