<?xml version="1.0" encoding="UTF-8" standalone="no"?>
<svg
   xmlns:dc="http://purl.org/dc/elements/1.1/"
   xmlns:cc="http://creativecommons.org/ns#"
   xmlns:rdf="http://www.w3.org/1999/02/22-rdf-syntax-ns#"
   xmlns:svg="http://www.w3.org/2000/svg"
   xmlns="http://www.w3.org/2000/svg"
   xmlns:sodipodi="http://sodipodi.sourceforge.net/DTD/sodipodi-0.dtd"
   xmlns:inkscape="http://www.inkscape.org/namespaces/inkscape"
   viewBox="0 0 512 512"
   version="1.1"
   id="svg6"
   sodipodi:docname="icon.svg"
   inkscape:version="0.92.4 (5da689c313, 2019-01-14)">
  <metadata
     id="metadata12">
    <rdf:RDF>
      <cc:Work
         rdf:about="">
        <dc:format>image/svg+xml</dc:format>
        <dc:type
           rdf:resource="http://purl.org/dc/dcmitype/StillImage" />
        <dc:title></dc:title>
      </cc:Work>
    </rdf:RDF>
  </metadata>
  <defs
     id="defs10" />
  <sodipodi:namedview
     pagecolor="#ffffff"
     bordercolor="#666666"
     borderopacity="1"
     objecttolerance="10"
     gridtolerance="10"
     guidetolerance="10"
     inkscape:pageopacity="0"
     inkscape:pageshadow="2"
     inkscape:window-width="1914"
     inkscape:window-height="1045"
     id="namedview8"
     showgrid="false"
     inkscape:zoom="0.92187498"
     inkscape:cx="296.54765"
     inkscape:cy="119.19818"
     inkscape:window-x="1920"
     inkscape:window-y="0"
     inkscape:window-maximized="0"
     inkscape:current-layer="svg6"
     showguides="true"
     inkscape:guide-bbox="true" />
  <path
     d="m 365.29785,179.76273 -75.67124,115.76309 c 5.90098,7.20265 9.37214,16.31443 9.37214,26.29401 0,22.99642 -18.65747,41.65388 -41.65388,41.65388 -22.99641,0 -41.65389,-18.65746 -41.65389,-41.65388 0,-2.60335 0.26034,-5.20673 0.69424,-7.72332 l -49.98467,-29.07094 c -7.46298,7.20264 -17.61611,11.62837 -28.89737,11.62837 -7.46299,0 -14.40531,-1.99592 -20.47983,-5.38029 l -53.195474,49.81111 v 49.63754 c 0,20.39305 16.661552,37.0546 37.054604,37.0546 h 314.74714 c 20.39304,0 37.0546,-16.66155 37.0546,-37.0546 V 206.23032 L 401.83177,172.4733 c -7.02909,5.46707 -15.88055,8.76468 -25.513,8.76468 -3.81828,0 -7.54977,-0.52067 -11.02092,-1.47525 z"
     id="path2"
     style="fill-opacity:1;stroke-width:0.99999994"
     inkscape:connector-curvature="0" />
  <path
     d="m 137.58995,213.34617 c 22.99642,0 41.65389,18.65748 41.65389,41.65389 0,1.82236 -0.17355,3.64471 -0.34713,5.38029 l 52.15414,29.15772 c 7.20266,-5.90096 16.31445,-9.37212 26.38079,-9.37212 3.12405,0 6.1613,0.34711 9.02502,0.95457 l 75.84477,-117.49866 c -4.85961,-6.76875 -7.72332,-15.09954 -7.72332,-24.12454 0,-22.99642 18.65745,-41.653892 41.65387,-41.653892 22.99641,0 41.65388,18.657472 41.65388,41.653892 0,3.38437 -0.43389,6.68197 -1.12811,9.80601 l 35.83969,23.95099 V 103.7444 c 0,-20.393045 -16.66155,-37.054603 -37.05461,-37.054603 H 100.88248 c -20.393052,0 -37.054604,16.661558 -37.054604,37.054603 v 198.98407 l 34.711572,-33.23633 c -1.6488,-4.51249 -2.60337,-9.37213 -2.60337,-14.49208 0,-22.99641 18.657462,-41.65389 41.653872,-41.65389 z"
     id="path4"
     style="fill-opacity:1;stroke-width:0.99999994"
     inkscape:connector-curvature="0" />
  <rect
     style="fill-opacity:1;stroke-width:0.99999994"
     id="rect4530"
     width="43.389465"
     height="13.016838"
     x="115.83986"
     y="249.61028" />
  <rect
     style="fill-opacity:1;stroke-width:0.99999994"
     id="rect4530-3"
     width="43.389465"
     height="13.016838"
     x="354.34412"
     y="132.28909" />
  <rect
     style="fill-opacity:1;stroke-width:0.99999994"
     id="rect4530-3-6"
     width="13.016838"
     height="43.389465"
     x="369.2583"
     y="117.91909" />
</svg>
